# xmcd CD database file
#
# Track frame offsets:
#	150
#	6558
#	27765
#	43905
#	63407
#	84006
#
# Disc length: 1320 seconds
#
# Revision: 1
# Processed by: cddbd v1.5.2PL0 Copyright (c) Steve Scherf et al.
# Submitted via: CDex 1.51
#
DISCID=42052606
DTITLE=nido de topo - Noctiluca
DYEAR=2010
DGENRE=同人音楽
TTITLE0=in c i so feat.Annabel
TTITLE1=code feat.Annabel
TTITLE2=ソワレ feat.Annabel
TTITLE3=苔蒸す庭 feat.Annabel
TTITLE4=moon phase feat.Annabel
TTITLE5=insomne Noctiluca feat.Annabel
EXTD=YEAR: 2010
EXTT0=
EXTT1=
EXTT2=
EXTT3=
EXTT4=
EXTT5=
PLAYORDER=
